# xmcd CD database file
#
# Track frame offsets:
#	150
#	23476
#	55054
#	78977
#	105707
#	128802
#	150480
#	172248
#	193695
#	209450
#
# Disc length: 3044 seconds
#
# Revision: 0
# Processed by: cddbd v1.5.1PL2 Copyright (c) Steve Scherf et al.
# Submitted via: CDex 1.51
#
DISCID=7e0be20a
DTITLE=Kjell Jansson Quartet with Annika Skoglund - Endless
DYEAR=2004
DGENRE=Jazz
TTITLE0=Meadowland
TTITLE1=Morgon (Morning)
TTITLE2=The Fortune Teller
TTITLE3=Endless
TTITLE4=My Man's Gone Now
TTITLE5=Look Away
TTITLE6=The Snob
TTITLE7=A Little Peace And Quiet
TTITLE8=Know-All
TTITLE9=Sakta Vaknar Dagen (Slowly The Day Awakens)
EXTD=YEAR: 2004
EXTT0=
EXTT1=
EXTT2=
EXTT3=
EXTT4=
EXTT5=
EXTT6=
EXTT7=
EXTT8=
EXTT9=
PLAYORDER=
